<svg version="1.2" xmlns="http://www.w3.org/2000/svg" viewBox="0 0 1500 500" width="1500" height="500">
	<title>New Project</title>
	<style>
		.s0 { fill: #ffffff } 
		.s1 { fill: none;stroke: #ffffff;paint-order:stroke fill markers;stroke-miterlimit:10;stroke-width: 20 } 
		.s2 { fill: none;stroke: #ffffff;paint-order:stroke fill markers;stroke-linejoin: round;stroke-width: 20 } 
	</style>
	<g id="Layer 1">
		<path id="T80 Se   rch" class="s0" d="m229 318h-28.5v-113.1h-56.6v-28.5h141.6v28.5h-56.5zm99.5 0q-7.8 0-14.3-3.7-6.1-4-10-10.1-3.7-6.5-3.7-14v-30.4q0-3.5 1-6.9 1.1-3.6 2.7-6.9-1.6-3.2-2.7-6.7-1-3.6-1-7.2v-27.9q0-7.8 3.7-14 3.9-6.3 10-10.1 6.5-3.7 14.3-3.7h83.6q6.8 0 12.7 3.1 6 2.9 10 8.3 4.1 5 5.3 11.5v32.8q0 7-3.7 13.9 3.7 6.2 3.7 13.8v30.4q0 7.5-3.9 14-3.8 6.1-10.2 10.1-6.3 3.7-13.9 3.7zm1.2-28h81.3q0.5 0 0.7-0.3 0.5-0.4 0.5-0.9v-27.5q0-0.5-0.5-0.7-0.2-0.5-0.7-0.5h-81.3q-0.5 0-0.8 0.5-0.3 0.2-0.3 0.7v27.5q0 0.5 0.3 0.9 0.3 0.3 0.8 0.3zm0-56.1h81.3q0.5 0 0.7-0.3 0.5-0.3 0.5-0.8v-27.1q0-0.4-0.5-0.6-0.2-0.5-0.7-0.5h-81.3q-0.5 0-0.8 0.5-0.3 0.2-0.3 0.6v27.1q0 0.5 0.3 0.8 0.3 0.3 0.8 0.3zm162.8 84.1q-7.6 0-14.2-4.1-6.1-4.4-10-11.1-3.7-6.8-3.7-14.3v-83.6q0-7.7 3.7-14.2 3.9-6.5 10-10.4 6.6-3.9 14.2-3.9h83.7q7.7 0 13.8 3.9 6.5 3.9 10.3 10.4 3.9 6.5 3.9 14.2v83.6q0 7.5-3.9 14.3-3.8 6.7-10.3 11.1-6.1 4.1-13.8 4.1zm83.6-87.9l-69.5 58.2h68.4q0.5 0 0.6-0.2 0.5-0.5 0.5-0.9zm-83.6-23.9v57.1l69.6-58.2h-68.4q-0.5 0-0.9 0.4-0.3 0.2-0.3 0.7zm238.9 113.7q-13.8 0-24.8-3.3-11-3.6-21-12.2-2.6-2.2-4-4.9-1.3-2.8-1.3-5.5 0-4.6 3.1-7.9 3.4-3.6 8.3-3.6 3.7 0 6.7 2.4 7.4 6.1 14.7 9.3 7.5 3.1 18.3 3.1 7.3 0 13.4-2.2 6.1-2.3 9.8-6.1 3.7-3.9 3.7-8.8 0-5.9-3.5-10-3.5-4.2-10.8-6.9-7.3-3-18.5-4.5-10.6-1.6-18.7-4.8-8-3.3-13.6-8.2-5.3-5.1-8-11.8-2.8-6.9-2.8-15.4 0-12.8 6.5-21.8 6.7-9 17.9-13.8 11.2-4.7 24.8-4.7 12.8 0 23.6 3.9 11 3.8 17.9 9.7 5.7 4.5 5.7 10.4 0 4.3-3.3 7.9-3.4 3.5-7.9 3.5-3 0-5.3-1.8-3.2-2.7-8.5-5.1-5.3-2.5-11.2-4.1-5.9-1.8-11-1.8-8.5 0-14.4 2.2-5.7 2.2-8.6 5.9-3 3.7-3 8.6 0 5.9 3.4 9.9 3.5 3.7 10 6.1 6.5 2.1 15.5 3.9 11.8 2.2 20.7 5.1 9 3 14.9 7.7 5.9 4.5 8.9 11.6 2.9 6.9 2.9 16.9 0 12.8-7 22-7.1 9.3-18.7 14.2-11.4 4.9-24.8 4.9zm120.8 0q-16.8 0-29.2-6.9-12.1-7-18.8-19-6.5-12-6.5-27.2 0-17.7 7.1-30.1 7.2-12.6 18.8-19.2 11.6-6.7 24.6-6.7 10.1 0 18.9 4.1 9 4.1 15.9 11.4 6.9 7.1 10.8 16.5 4.2 9.5 4.2 20.1-0.2 4.7-3.8 7.7-3.5 2.9-8.2 2.9h-75.1l-5.9-19.7h72.1l-4.3 4v-5.3q-0.4-5.7-4.1-10.3-3.6-4.5-9.1-7-5.3-2.8-11.4-2.8-5.9 0-11 1.6-5.1 1.5-8.8 5.3-3.8 3.7-5.9 10-2.2 6.3-2.2 15.9 0 10.7 4.3 18.1 4.5 7.3 11.4 11.2 7.1 3.8 15 3.8 7.3 0 11.6-1.2 4.3-1.2 6.9-2.8 2.7-1.7 4.9-2.9 3.5-1.8 6.7-1.8 4.3 0 7 3 3 2.9 3 6.9 0 5.3-5.5 9.6-5.1 4.3-14.4 7.7-9.2 3.1-19 3.1zm243.4-2q-5.1 0-8.4-3.3-3.4-3.5-3.4-8.6v-81.3q0-5.1 3.4-8.4 3.3-3.6 8.4-3.6 5.1 0 8.5 3.6 3.3 3.3 3.3 8.4v18.5l-1.3-13.2q2.1-4.7 5.5-8.2 3.5-3.8 7.8-6.1 4.4-2.6 9.3-3.8 4.9-1.1 9.8-1.1 5.9 0 9.8 3.3 4.2 3.4 4.2 7.9 0 6.5-3.4 9.4-3.3 2.8-7.3 2.8-3.7 0-6.8-1.4-3-1.4-6.9-1.4-3.6 0-7.3 1.8-3.5 1.6-6.7 5.1-2.9 3.5-4.9 8.8-1.8 5.2-1.8 12.2v46.7q0 5.1-3.3 8.6-3.4 3.3-8.5 3.3zm116.1-107.1q11.2 0 19.4 2.3 8.5 2.4 13 6.7 4.7 4.1 4.7 10 0 4-2.3 7.5-2.4 3.4-6.9 3.4-3.2 0-5.3-0.8-2-1-3.6-2.4-1.5-1.4-3.7-2.5-2-1.2-6.1-1.8-3.9-0.8-5.9-0.8-10 0-17.1 4.3-6.9 4.4-10.6 11.8-3.8 7.3-3.8 16.9 0 9.5 3.8 17 3.9 7.2 10.6 11.6 6.9 4.3 15.7 4.3 4.9 0 8.5-0.6 3.5-0.6 5.9-1.8 2.7-1.6 4.9-3.3 2.2-1.8 6.5-1.8 5.1 0 7.9 3.4 2.7 3.1 2.7 7.8 0 4.9-5.5 9.1-5.5 3.9-14.5 6.5-8.9 2.3-19.3 2.3-15.6 0-27-7.1-11.4-7.2-17.7-19.6-6.1-12.4-6.1-27.8 0-16.1 6.5-28.3 6.7-12.4 18.3-19.3 11.8-7 27-7zm110.7 0q14.1 0 21.4 6.1 7.5 6.1 10.2 16.3 2.8 10 2.8 22.4v50.4q0 5.1-3.3 8.6-3.4 3.3-8.5 3.3-5.1 0-8.5-3.3-3.3-3.5-3.3-8.6v-50.4q0-6.5-1.6-11.6-1.5-5.3-5.7-8.5-4.1-3.1-11.8-3.1-7.4 0-12.8 3.1-5.3 3.2-8 8.5-2.6 5.1-2.6 11.6v50.4q0 5.1-3.3 8.6-3.4 3.3-8.5 3.3-5.1 0-8.4-3.3-3.4-3.5-3.4-8.6v-121.6q0-5.1 3.4-8.4 3.3-3.6 8.4-3.6 5.1 0 8.5 3.6 3.3 3.3 3.3 8.4v48.8l-2.9-0.6q1.7-3.3 4.9-7.1 3.1-3.9 7.7-7.3 4.5-3.3 10-5.3 5.5-2.1 12-2.1z"/>
		<path id="Shape 3" fill-rule="evenodd" class="s1" d="m974.7 305.5c-26.9 0-48.7-21.8-48.7-48.8 0-26.9 21.8-48.7 48.7-48.7 27 0 48.8 21.8 48.8 48.7 0 27-21.8 48.8-48.8 48.8z"/>
		<path id="Shape 4" fill-rule="evenodd" class="s2" d="m1017.9 292.3l39.2 36.5z"/>
	</g>
</svg>